HIERARCHY
ROOT Hips
{
 OFFSET 0.000000 0.000000 0.000000
 CHANNELS 6 Xposition Yposition Zposition Yrotation Xrotation Zrotation
 JOINT Chest
 {
  OFFSET 0.000000 9.585900 0.002600
  CHANNELS 3 Yrotation Xrotation Zrotation
  JOINT Chest2
  {
   OFFSET 0.000000 9.601200 -0.005300
   CHANNELS 3 Yrotation Xrotation Zrotation
   JOINT Chest3
   {
    OFFSET 0.000000 9.561800 0.000000
    CHANNELS 3 Yrotation Xrotation Zrotation
    JOINT Chest4
    {
     OFFSET 0.000000 9.552100 0.000000
     CHANNELS 3 Yrotation Xrotation Zrotation
     JOINT Neck
     {
      OFFSET 0.000000 14.453000 0.000000
      CHANNELS 3 Yrotation Xrotation Zrotation
      JOINT Head
      {
       OFFSET 0.000000 8.936500 -0.011300
       CHANNELS 3 Yrotation Xrotation Zrotation
       End Site
       {
        OFFSET 0.000000 17.073600 -0.006000
       }
      }
     }
     JOINT RightCollar
     {
      OFFSET -2.921100 9.558500 0.000000
      CHANNELS 3 Yrotation Xrotation Zrotation
      JOINT RightShoulder
      {
       OFFSET -13.519700 0.000000 0.000000
       CHANNELS 3 Yrotation Xrotation Zrotation
       JOINT RightElbow
       {
        OFFSET 0.000000 -29.696600 0.000000
        CHANNELS 3 Yrotation Xrotation Zrotation
        JOINT RightWrist
        {
         OFFSET 0.000000 -24.004700 0.000000
         CHANNELS 3 Yrotation Xrotation Zrotation
         End Site
         {
          OFFSET 0.000000 -17.728500 0.000000
         }
        }
       }
      }
     }
     JOINT LeftCollar
     {
      OFFSET 2.921100 9.558500 0.000000
      CHANNELS 3 Yrotation Xrotation Zrotation
      JOINT LeftShoulder
      {
       OFFSET 13.519700 0.000000 0.000000
       CHANNELS 3 Yrotation Xrotation Zrotation
       JOINT LeftElbow
       {
        OFFSET 0.000000 -29.696600 0.000000
        CHANNELS 3 Yrotation Xrotation Zrotation
        JOINT LeftWrist
        {
         OFFSET 0.000000 -24.004700 0.000000
         CHANNELS 3 Yrotation Xrotation Zrotation
         End Site
         {
          OFFSET 0.000000 -17.728500 0.000000
         }
        }
       }
      }
     }
    }
   }
  }
 }
 JOINT RightHip
 {
  OFFSET -7.771700 -0.012900 -0.001300
  CHANNELS 3 Yrotation Xrotation Zrotation
  JOINT RightKnee
  {
   OFFSET 0.000000 -40.869800 0.001200
   CHANNELS 3 Yrotation Xrotation Zrotation
   JOINT RightAnkle
   {
    OFFSET 0.000000 -39.717900 0.002100
    CHANNELS 3 Yrotation Xrotation Zrotation
    JOINT RightToe
    {
     OFFSET 0.000000 -4.965400 11.033500
     CHANNELS 3 Yrotation Xrotation Zrotation
     End Site
     {
      OFFSET 0.000000 -1.423100 5.872300
     }
    }
   }
  }
 }
 JOINT LeftHip
 {
  OFFSET 7.771700 -0.012900 -0.001300
  CHANNELS 3 Yrotation Xrotation Zrotation
  JOINT LeftKnee
  {
   OFFSET 0.000000 -40.869800 0.001200
   CHANNELS 3 Yrotation Xrotation Zrotation
   JOINT LeftAnkle
   {
    OFFSET 0.000000 -39.717900 0.002100
    CHANNELS 3 Yrotation Xrotation Zrotation
    JOINT LeftToe
    {
     OFFSET 0.000000 -4.965400 11.033500
     CHANNELS 3 Yrotation Xrotation Zrotation
     End Site
     {
      OFFSET 0.000000 -1.423100 5.872300
     }
    }
   }
  }
 }
}
MOTION
Frames: 5
Frame Time: 0.008333
0.000000 85.388000 0.000000 0.000000 -5.767877 0.000000 0.000000 11.653817 0.000000 0.000000 -5.885947 0.000000 0.000000 -0.000000 0.000000 0.000000 -0.000000 0.000000 0.000000 12.528835 0.000000 0.000000 0.711642 0.000000 0.000000 -0.000000 0.000000 0.000000 0.000000 -90.000000 0.000000 -2.309062 0.000000 0.000000 2.309062 0.000000 0.000000 -0.000000 0.000000 0.000000 -0.000000 90.000000 0.000000 -2.309062 0.000000 0.000000 2.309062 0.000000 0.000000 8.520406 0.000000 0.000000 1.905762 0.000000 -0.000000 -4.658285 0.000000 0.000000 -0.000000 0.000000 0.000000 8.520406 0.000000 0.000000 1.905762 0.000000 -0.000000 -4.658285 0.000000 0.000000 -0.000000 0.000000
-19.197699 62.101582 11.891401 174.204788 -46.968332 -1.077655 4.165498 26.729322 0.806349 0.634654 4.544602 0.101621 1.010750 7.210345 0.188696 3.245945 21.730162 0.987236 -0.615926 18.327346 0.980737 -1.448509 -1.743081 2.000568 8.580049 10.238834 2.051361 -22.582192 -8.402454 -4.537862 -73.825267 -20.390231 131.419557 -20.858198 -26.025626 -29.613360 -6.642868 6.076407 4.165637 15.462681 -3.652774 0.572806 86.226015 -35.302266 -120.752873 42.453167 -27.439953 25.001670 2.668385 -20.224653 -4.148130 -1.913538 61.574505 -5.124704 1.741217 -7.792768 10.395204 0.210706 -0.475070 0.111715 -3.237686 -16.897350 4.605023 26.708628 77.309293 27.444980 1.444308 -12.330927 -3.798085 0.203781 0.614135 0.111681
-19.199598 62.101778 11.891491 174.211728 -46.976808 -1.079765 4.160372 26.736326 0.803056 0.634710 4.544718 0.101571 1.012599 7.206366 0.185045 3.251101 21.731910 0.987502 -0.557101 18.329973 1.004185 -1.347968 -1.738991 2.024613 8.569245 10.223535 2.066583 -22.488041 -8.453772 -4.568394 -73.758503 -20.349532 131.400970 -20.873183 -25.998553 -29.615115 -6.660847 6.067546 4.162957 15.417782 -3.648222 0.603994 86.063389 -35.271575 -120.661900 42.440266 -27.479176 25.007082 2.670939 -20.215058 -4.151648 -1.926274 61.574323 -5.133306 1.741697 -7.793032 10.393437 0.208035 -0.475803 0.111357 -3.230404 -16.889705 4.609324 26.667257 77.313250 27.406762 1.412623 -12.333770 -3.784149 0.219540 0.614729 0.107651
-19.200986 62.100849 11.892771 174.207075 -46.978482 -1.078255 4.176161 26.731207 0.810307 0.634423 4.545538 0.101131 1.012197 7.207295 0.184245 3.251201 21.732360 0.989330 -0.474687 18.332404 1.027746 -1.204192 -1.735628 2.041204 8.555655 10.207929 2.080241 -22.370496 -8.538438 -4.588240 -73.705861 -20.309351 131.342429 -20.888592 -25.965404 -29.631773 -6.680939 6.057243 4.161192 15.307843 -3.676563 0.674642 85.978455 -35.199688 -120.545492 42.442880 -27.492124 25.038519 2.675521 -20.213729 -4.151256 -1.921634 61.570988 -5.126166 1.740330 -7.790395 10.391273 0.210824 -0.474753 0.109710 -3.219528 -16.888537 4.616611 26.664772 77.312704 27.400441 1.406191 -12.338194 -3.771132 0.220422 0.619345 0.101787
-19.203572 62.100752 11.893096 174.210210 -46.989928 -1.075393 4.186444 26.720370 0.809192 0.628266 4.560280 0.103445 1.020485 7.199123 0.182939 3.243084 21.745374 0.994892 -0.365408 18.331546 1.049192 -1.016711 -1.730695 2.049909 8.545895 10.167546 2.096054 -22.285621 -8.568912 -4.618219 -73.642654 -20.273323 131.324144 -20.902681 -25.931627 -29.670849 -6.699331 6.040839 4.158326 15.250334 -3.688916 0.721659 85.844045 -35.136812 -120.441381 42.454518 -27.497901 25.065852 2.674652 -20.200925 -4.158256 -1.903849 61.569107 -5.109144 1.733954 -7.792376 10.390083 0.212534 -0.470844 0.107697 -3.216757 -16.877640 4.614343 26.663286 77.311724 27.390464 1.409633 -12.337621 -3.758400 0.217626 0.620447 0.096082
